<?xml version="1.0" encoding="utf-8"?>
<!-- Generator: Adobe Illustrator 13.0.0, SVG Export Plug-In . SVG Version: 6.00 Build 14948)  -->
<!DOCTYPE svg PUBLIC "-//W3C//DTD SVG 1.1//EN" "http://www.w3.org/Graphics/SVG/1.1/DTD/svg11.dtd" [
	<!ENTITY ns_flows "http://ns.adobe.com/Flows/1.0/">
	<!ENTITY ns_extend "http://ns.adobe.com/Extensibility/1.0/">
	<!ENTITY ns_ai "http://ns.adobe.com/AdobeIllustrator/10.0/">
	<!ENTITY ns_graphs "http://ns.adobe.com/Graphs/1.0/">
	<!ENTITY ns_vars "http://ns.adobe.com/Variables/1.0/">
	<!ENTITY ns_imrep "http://ns.adobe.com/ImageReplacement/1.0/">
	<!ENTITY ns_sfw "http://ns.adobe.com/SaveForWeb/1.0/">
	<!ENTITY ns_custom "http://ns.adobe.com/GenericCustomNamespace/1.0/">
	<!ENTITY ns_adobe_xpath "http://ns.adobe.com/XPath/1.0/">
]>
<svg version="1.1"
	 xmlns:x="&ns_extend;" xmlns:i="&ns_ai;" xmlns:graph="&ns_graphs;" i:viewOrigin="156.5 545.5" i:rulerOrigin="0 0" i:pageBounds="0 792 612 0"
	 xmlns="http://www.w3.org/2000/svg" xmlns:xlink="http://www.w3.org/1999/xlink" xmlns:a="http://ns.adobe.com/AdobeSVGViewerExtensions/3.0/"
	 x="0px" y="0px" width="300px" height="300px" viewBox="0 0 300 300" enable-background="new 0 0 300 300" xml:space="preserve">
<metadata><?xpacket begin="   " id="W5M0MpCehiHzreSzNTczkc9d"?>
<x:xmpmeta xmlns:x="adobe:ns:meta/" x:xmptk="Adobe XMP Core 4.1-c036 46.277092, Fri Feb 23 2007 14:17:08        ">
   <rdf:RDF xmlns:rdf="http://www.w3.org/1999/02/22-rdf-syntax-ns#">
      <rdf:Description rdf:about=""
            xmlns:xap="http://ns.adobe.com/xap/1.0/"
            xmlns:xapGImg="http://ns.adobe.com/xap/1.0/g/img/">
         <xap:Thumbnails>
            <rdf:Alt>
               <rdf:li rdf:parseType="Resource">
                  <xapGImg:width>256</xapGImg:width>
                  <xapGImg:height>184</xapGImg:height>
                  <xapGImg:format>JPEG</xapGImg:format>
                  <xapGImg:image>/9j/4AAQSkZJRgABAgEASABIAAD/7QAsUGhvdG9zaG9wIDMuMAA4QklNA+0AAAAAABAASAAAAAEA&#xA;AQBIAAAAAQAB/+4ADkFkb2JlAGTAAAAAAf/bAIQABgQEBAUEBgUFBgkGBQYJCwgGBggLDAoKCwoK&#xA;DBAMDAwMDAwQDA4PEA8ODBMTFBQTExwbGxscHx8fHx8fHx8fHwEHBwcNDA0YEBAYGhURFRofHx8f&#xA;Hx8fHx8fHx8fHx8fHx8fHx8fHx8fHx8fHx8fHx8fHx8fHx8fHx8fHx8fHx8f/8AAEQgAuAEAAwER&#xA;AAIRAQMRAf/EAaIAAAAHAQEBAQEAAAAAAAAAAAQFAwIGAQAHCAkKCwEAAgIDAQEBAQEAAAAAAAAA&#xA;AQACAwQFBgcICQoLEAACAQMDAgQCBgcDBAIGAnMBAgMRBAAFIRIxQVEGE2EicYEUMpGhBxWxQiPB&#xA;UtHhMxZi8CRygvElQzRTkqKyY3PCNUQnk6OzNhdUZHTD0uIIJoMJChgZhJRFRqS0VtNVKBry4/PE&#xA;1OT0ZXWFlaW1xdXl9WZ2hpamtsbW5vY3R1dnd4eXp7fH1+f3OEhYaHiImKi4yNjo+Ck5SVlpeYmZ&#xA;qbnJ2en5KjpKWmp6ipqqusra6voRAAICAQIDBQUEBQYECAMDbQEAAhEDBCESMUEFURNhIgZxgZEy&#xA;obHwFMHR4SNCFVJicvEzJDRDghaSUyWiY7LCB3PSNeJEgxdUkwgJChgZJjZFGidkdFU38qOzwygp&#xA;0+PzhJSktMTU5PRldYWVpbXF1eX1RlZmdoaWprbG1ub2R1dnd4eXp7fH1+f3OEhYaHiImKi4yNjo&#xA;+DlJWWl5iZmpucnZ6fkqOkpaanqKmqq6ytrq+v/aAAwDAQACEQMRAD8A9U4q7FXYq7FXYq7FXYq7&#xA;FXYq7FXYq7FXYq7FXYq7FXh/59/85IWXkGRvL+gxR6h5qdA0xk3gs1cVUyhSC0hG6pttuewKr498&#xA;1fmH5382XDz+YdautQLGohkkIgX/AFIV4xJ/sVGKpLZX99YXC3Njcy2twn2ZoHaNx8mUg4q92/KX&#xA;/nLHzZ5fu4dO85yya7oTEK129GvoB05BzT1h4h/i8G7Yq+zdM1PT9U0+21HTrhLqxu41mtriI8ke&#xA;NxVWU+4xVE4q7FXYq7FXYq7FXYq7FXYq7FXYq7FXYq7FXYq7FXYq7FXYq7FXYq7FXYq7FXYq7FWP&#xA;/mB5ri8peStZ8xyKHOm2sk0UZ6PLTjEh6bNIyg4q/NXVNTvtU1K61LUJmuL69lee6nfdnkkYszH5&#xA;k4qhcVdirsVfWn/OFnn25ubTV/JF3KZFsVGo6WpqSkTuEuEHgokdGA8WbFX1BirsVdirsVdirsVd&#xA;irsVdirsVdiry786vz58v/lrZpbiMal5jukLWmmK/EIu4E07CpVK9B1bt3IVfMF3+d//ADkP55vZ&#xA;W0SfUDGhJ+paDavxiDVopaFXlO3Tm5xVTTzp/wA5SeXh9fuZPM1vDFV2k1C1uZIQB15C5jdKfPFX&#xA;oH5df85nahHNFY+fLBJ7diFOr2K8JVqT8UsH2X/2HHbsTir6m0PXdH17SrfVtHu477Trpedvcwmq&#xA;sK0PuCDsQdweuKo7FXYq7FXYq7FXYq7FXYq7FXYq8m/5ypW4b8jtf9L7IeyM4H8gvIf+NqYq+BMV&#xA;dirsVdir3H/nDtLhvzfrF9hNNujP/qcowP8AhyuKvuPFXYq7FXYq7FXYq7FXYq7FXYq7FX5++VNM&#xA;uPzk/PQrqksn1bWLue7vXjNGjs4VZ1jQtUqAirEvhtir7z0LQNG0DS4NK0azisdPtl4w28KhVHuf&#xA;EnuTucVR+KvJPzc/5xy8meerOe7sbeLR/M1C0OowIESV6bLcotA4NKcqch79MVfNn5T/AJi+ZvyV&#xA;/MO68veY45I9JacW+u6cSWETEDhdQ02JCkNt9tPoIVfdkM0M8KTQussMqh45EIZWVhUMpGxBGKrs&#xA;VdirsVdirsVdirsVdirsVSXzr5YtfNPlLV/LtyeMWp2sluJDvwdl/dyfNHow+WKvzV1/QtU0DWr3&#xA;RtVhNvqFhK0FzC3ZkNNj3B6g9xviqX4q7FXYq+v/APnDP8vLrTtH1LzrfxGJ9XUWmlhtibaNuUsl&#xA;P5ZJFUD/AFfcYq+lcVdirsVdirsVdirsVdirsVdirsVfCH/ONmoL5V/Pe103Uh6UkzXejyl/gKT7&#xA;hQQe7SxBKeJxV934q7FXYq+Yf+c1PI1tJpekedbaKl1BKNN1B1A+KKQNJCz/AOo6stf8oYq9D/5x&#xA;Z803HmD8n9NW5cyXGjyy6W8jEsSsPF4hv/LDKi/Rir1vFXYq7FXYq7FXYq7FXYq7FXYq8j/PH/nH&#xA;vRfzIhGpWcqaX5pgThHfFaxToB8MdyF+Lb9lxuvgRtir5C81fkb+avli4kj1Hy7dywpWl5ZRtd25&#xA;UftepCH4g/5dD7Yqkenfl/571K4FvYeXdSuZj+xHaTtSvjRdh7nFXvP5R/8AOIWs3V5Bq35ggWOn&#xA;RlZF0SNw889N+M7xkrEh7hWLdvhxV9b2trbWltFa2sSQW0CLHBBGoRERBRVVRQAACgAxVVxV2Kux&#xA;V2KuxV2KuxV2KuxV2KuxV8b/APOV35Vah5e80j8wdDV003UpVkvpIOQa0v1IpLyX7ImNGVq/br4r&#xA;ir2P8hP+cgdH8+aZBpGsTx2fnC3QJLA5CrdhR/fQV2LHqydR1G2KvZcVdir50/5zP852Nn5NsPKc&#xA;ciNqWqXKXU0PVktbcN8W32ecpULXqA2Kp3/zh5pn1P8AJ8XHJT+kdSurmisGI4iO3owBPE/uK0Pb&#xA;fvir3DFXYq7FXYq7FXYq7FXYq7FXEgAkmgG5J6UxVJ4fOfk+e+Wwg13T5b524paJdQNKWJpQRh+R&#xA;NfbFU4xV2KuxV2KuxVjX5ief9C8h+VrnzFrJc28JEcMEYrJNM9eESV2qaHc9BU4q+S/NP/OY/wCZ&#xA;mpTsNCgs9BtAW9ILGLqfiTtzknBjNB/LGuKsOf8A5yQ/O17v62fNM4lBDcVhtliqoAH7oRCOm244&#xA;74qyTQv+cvvzf0+UHUJrLWYv2kurZIj9DWvoUPzBxV6v5R/5zU8p3pSHzRo9xpEhoGurVhdwV7sy&#xA;0jlUewD4q908q+dvKfmyx+u+XNVt9Ttx9v0HBdK1AEkZpJGTTo6jFU7xV2KuxV2KoXVdK07VtOuN&#xA;N1O2ju7C7QxXNtKoZHRuoIOKvkX81v8AnErzJo19JrX5fM+o6criVNM58b23YGv7pjQSqv7O/P2b&#xA;rirF9H/5yT/PPyUx0nVZPrclvRPquu20hnTh8JDODBOTtvzYnFUxvP8AnMz82rmBoobTSLORhQTQ&#xA;W07OCe4E08qfeuKpV5Z/JH85PzYvrnzHqrvbi4UuNW1gvGJ2/YSJFUvw91TgB08MVSG11D82/wAk&#xA;fNbQfvtIuzR5LWT95ZXkYqA1AfTlXcgMpqviDir6g/Kz/nKnyR5tWHT9eZfL2vNReEzf6HK3/FU5&#xA;+xX+WSnsWxV7cCCAQag7gjpTFXYq7FXYq7FXYqgtX1zRdFtDeavf2+nWi9bi6lSGOtK05OVGKvCv&#xA;zC/5zD8laNHJa+UoG8waiNluWDQWSGnXkwEklPBVAP8ANir5h89/nD+YXnid217VpXtGNU02AmG0&#xA;QdgIVNGp4vVvfFWGKzKwZSVZTVWGxBGKvv7/AJxn87av5u/Ku0u9Xla41DT55dPlunNXlEIV0dz3&#xA;bhIqk96VxV6rirsVdirsVebf85B/l3e+fPy1vNL04ctVs5U1DToqgCSWFWUx1Pd45HC/5VO2Kvz5&#xA;uba5tbiW2uYnguIWMc0MilXR1NGVlO4IOKqWKuxV2Ko/Rdd1rQ9Qj1HRr6fT76L+7ubaRo3HiKqR&#xA;se4xV9T/AJL/APOWy39xbaB+YJjhuJCI7fzAgEcbMTRRdIKKlf8Afi0XxA3OKvp4EEAg1B3BHSmK&#xA;uxV2KuxV2KoXUNJ0rUoli1GzgvYlNVjuI0lUHxAcMMVQFh5L8nafcLcWGhadZ3CkMs0FpBE4YdCG&#xA;RAa4qnOKpL5t8meWPN2kSaT5i0+K/sn3VZB8cbfzxSCjo3up/DFXyl+aX/OH+v6QJdT8jTNrOnir&#xA;Npc3Fb2Ndz+7YcUmA/2LeAbFXlvlv83/AM2fJDfo3TdbvLGO0YxnTLpRLHGQfiT0LhXCfIAYq9D0&#xA;n/nM/wDM61jEd/YaXqNOsrRSwyH5+nIE/wCExVk1p/znJerFS88nRzS12eHUGiWnYcWt5TX6cVRM&#xA;n/Oc0II9LyWzCm5bUgu/0WrYqkV9/wA5uec35fUPLunQHfj67zz08K8GgrirCNe/5yj/ADn1dGjG&#xA;srpsLmpjsII4SPYSEPKP+DxV5pq2ua1rN013q9/cajdNUtPdSvM5r/lOWOKoHFXYqm3lfyp5h806&#xA;xBo+gWMt/qE5ASKIbKK0LuxoqIO7MQBir9B/yb/Llfy+8hWPl5pVnvQXudRnSvBriY1fhWh4qAEH&#xA;iBXFWb4q7FXYq7FXYqwvzt+Tn5b+dGebX9FhmvWFP0hDyguelATLEVZ6U251GKvH9f8A+cJPK07M&#xA;+g+YrywqKrFeRR3a8vDkhtiB9+KvOtc/5w0/NCxQyaZd6dqyg7RRyvBKfomRY/8AkpiryzzZ+WH5&#xA;g+Ui3+IdBu7GJSVNyU9S3JHhPHziP0NirF8Vdir60/5xH/Oa91B/+Ve69cGeWGJpdAuZCS5jiFZL&#xA;UnuEQF469FDDoFGKvqDFXYq7FUv8w63ZaDoOo63fEiz0y2lu7jju3CFC7BR3YhaAeOKvhfU/zN/P&#xA;H81vNM0Wg3Go7c5rfR9JlkhiggU0BcxlORHKnOQ7k0HUDFWXfkL+fHnnQ/PVp5M85XV1e6ffXI05&#xA;k1As11ZXbN6UY5yfHx9SiOjH4eopShVfZWKuxV2KsC/M38k/Iv5h2zHV7T0NVVeNvrFtRLlKD4Qx&#xA;pSRR/K4PtTrir45/NP8A5x58+eQZnuHt21bQan09WtEZlVf+XiMcmhO/f4fBjiql+VH5C+afzK03&#xA;Ur7R7u1sl0+SOIfXfVVJWkDE8HjSX7PHfbviqdXn/OJH50QOVisLS7ANA0N3CAR4/vTEcVS9v+cW&#xA;/wA9QSB5aqB3F9p9D99xirX/AEK5+e3/AFLP/T9p/wD2UYqjbD/nE387Lp1WfSrexBO73F5bsB8/&#xA;QeY/cMVZvov/ADhB5ilauueZrO0UCtLKCW6JbbasptaD3p9GKvQvLv8Azht+WGnmOTVrm/1qVWq0&#xA;ckq28DAduEIWT/kpir2Hyz5P8r+VrH6j5e0u30y2NOa28YUuV6GR/tyNv1Yk4qnGKuxV2KuxV2Ku&#xA;xV2KuxV2KtSRxyRtHIoeNwVdGFQQdiCD1BxV4T+cH/OLHlTzNZ3OqeU4I9F8xgF0t4gI7K5YVJV4&#xA;wKRM3Z0oPEHrir4q1DT73Tb+40+/ge2vbSR4Lm3kHF45IyVZWHiCMVZB+V+tvof5jeWtVUkC21K2&#xA;MtDSsTSqkq1/yo2YYq/SzFXYq7FUi8+eXpPMnkrXdAikEU2qWNxawyt9lZJYyqFv8nkRX2xV8I/l&#xA;1+Y3nD8mPNuqRNpiNduhs9S029DIQ0bckZWXcEHodwQfkcVTT8rtJ80fmr+eFvr0sAVRqMer6zcQ&#xA;oVggjhkEgjBNaF+AjQEk9+xOKvvfFXYq7FXYq7FXYq7FXYq7FXYq7FXYq7FXYq7FXYq7FXYq7FXY&#xA;q7FXYq7FXYq+Hv8AnMPy/Z6X+a6XtsoQ6zp8N3cqBT98rvAzbfzLCp+dcVeReUrWa781aNawKXmu&#xA;L62iiRQSSzzKqgAVJ3OKv0+xV2KuxV2KpF5h8ieS/Mkkcuv6HY6pNEKRzXVvHLIo/lDsC1N+laYq&#xA;jtF0DQ9CshY6Lp9tptmDyFvaRJDHyIoWKoFFTTriqPxV2KuxV2KuxV2KuxV2KuxV2KuxV2KuxV2K&#xA;uxV2KuxV2KuxV2KuxV2KuxV2Kvif/nM/Uobn807G0jNWsdJgjm8RJJNNLT/gHU4qxT/nGnytL5g/&#xA;OLQwFY22lO2p3LqKhRajlGT4VmMa/Tir9A8VdirsVdirsVdirsVdirsVdirsVdirsVdirsVdirsV&#xA;dirsVdirsVUL6/sbC2e6vrmK0tY/7yed1jjWu27MQBirDp/zy/KGC7+qSebdN9UGhKTq8ddv92Jy&#xA;j7/zYqzDT9S07UrSO9066hvbOUViubeRZYnHiroSp+g4qkPnv8yPJvkXTVv/ADLqCWiSkrbW4Bkn&#xA;mZRUiKJas1O5+yNqkYq84sP+cwPyfurxbeV9Rso2bj9antQYhvSp9J5Xp/scVew6PrOk61psGp6T&#xA;dxX2n3K84LqBw6MPYjuOhHbFUZirsVdir85/zz80p5n/ADX8x6pC4ktfrRtbV1+yYbVRAjD2YR8v&#xA;pxV9Qf8AOJf5XzeWPJ0vmXUovT1bzGI5IUYUeKySpiG+4Mpbmfbj4Yq94xV2KuxV2KuxV2KuxV2K&#xA;uxV2KuxV2KuxV2KuxV2KuxV2KuxVxIAJJoBuSelMVfPv5tf85a+XfLrz6T5OSPW9YQtHJfMT9RhY&#xA;bfCykGcj/JIX/KPTFXyh5y/MPzn5zvjeeZNVmv3BJihY8YI69o4V4xp9AxVjmKvX/wDnGb8zr3yh&#xA;+YVlpk9yw8v67KtnewM1IkmlPGGeh+FSrkBm/lJxVIfz4863Xm780dcvnmMtlZ3D2GmrU8VtrZzG&#xA;vAHpzIMh92OKvPsVe+f84j/mVeaH54TyldTk6Lr/ACWKJj8MV6ilo3Xw9QL6Zp1PHwxV9sYq7FXn&#xA;n58fmLD5E/LnUdRjl9PVr1TZaQqmj/WJlI9Raf76WslfYDvir51/5xz/AOcdLvzLd2/m7zbbtD5e&#xA;hZZrCxlFGvmHxK7Bv90f8T+WKvs0AAAAUA2AHSmKuxV2KuxV2KuxV2KuxV2KuxV2KuxV2KuxV2Ku&#xA;xV2KuxV2KpX5l8z6D5Z0efWddvY7HTrcVknlPU9lVRVmY9lUVOKvir87P+clfMPnl59G0MyaT5UJ&#xA;KmEHjcXajatwynZT/vtTTx5dlXimKuxV2Kss/KnytfeaPzD0HRrNWLTXkUk8iivpwRMJJpD0+yik&#xA;9eu2KpH5h/47+p/8xc//ACcbFUvxVOfJeqyaR5w0PVYm4vYX9rcKe37qZX39tsVfp3irsVecebvy&#xA;V0rzl56tPMXmm/k1HSdLjC6X5c4CO2STYvJM4Zmm5sKkUXoAagGqr0ZESNFRFCIgCqqigAGwAAxV&#xA;vFXYq7FXYq7FXYq7FXYq7FXYq7FXYq7FXYq7FXYq7FXYqwj80/ze8pflxo/1zWJvW1CZT+j9JhI+&#xA;sXDDbp+xGD9p22HapoCq+FvzO/Nnzb+YusfXtbn4WkJb6hpkRIt7dT/Kp+05/ac7n5UAVYXirsVd&#xA;irLfy9/K3zn5+1MWXl6xaWJGAutQkBS1gB7yy0pXbZRVj2GKvt78mPyP8vflnpjmB/r+v3iBdR1V&#xA;14kqDX0oV34RgivWrHc9gFXw9+amkfoj8yvNGnDlwt9TuhEWpyMbTM0ZNKCpRhirFcVbVipDKaEb&#xA;gjqDir9TbK7ivLK3vIaiK5jSaMNseLqGFR40OKq2KuxV2KuxV2KuxV2KuxV2KuxV2KuxV2KuxV2K&#xA;uxV2KuxV2KuxV4j+eH/OSuieRln0TQPS1TzWAVkUnlb2Z8ZypHJ/+Kwf9anQqvivzF5j1zzHrFxr&#xA;GuXkl/qV03Ka4lNSewUAbKqjZVUUA2GKpbirsVTHQfL2ueYNTi0vRLGbUdQm/u7a3Qu1B1Y06KO5&#xA;OwxV9P8A5W/84cQxehqf5g3IlkBDjQrR/gFKGk9wpq3gVj/4PFX0xo+i6RounQ6bpNnDYWFuOMNt&#xA;bosaKPktNz3PfFUZir4X/wCcu/L7aZ+b89+FAi1qzt7tSOnKNfqzj5/uKn54q8TxV2Kv098nymby&#xA;lokpFDJYWrkDtyhU4qm+KuxV2KuxV2KuxV2KuxV2KuxV2KuxV2KuxV2KuxV2KuxVZPPBbwSXFxIs&#xA;MEKtJNNIwVERRVmZjQAACpJxV8ofnn/zlZJc+v5c/L2cx2/xR3vmBdnfsUtP5V/4s6n9mnUqvl93&#xA;d3Z3Ys7EszMakk7kknFVuKqlvbz3E8cFvG008rBIoo1LOzMaBVUVJJxV9A/ld/ziH5p1ww6j5zkf&#xA;QdLNG+oKAb6VfAg1WCv+XVv8nFX1d5L/AC/8oeStMGneW9NisYTT1pFHKaVh+1LK1Xc/M7dqYqyH&#xA;FXYq7FXzd/zmt5V+teVdE8zRIPV0y5a0uGH2vRul5KT7LJFT/ZYq+PMVdir9K/ypvYr78sfKd1G3&#xA;ISaRY8t60dbdFda/5LAjFWU4q7FXYq7FXYq7FXYq7FXYq7FXYq7FXYq7FXYq7FXYqk/mzzd5d8p6&#xA;JPrev3qWOnwbGR92dyCVjjUfE7tTZV3xV8RfnZ/zkT5h/MKeTTNP9TSvKat+7sA1Jbjiah7plNDv&#xA;uIx8K+53xV5BirsVev8A5X/84y+fvOxhvryM6BoL0b69eI3qyIaGsEHws9QahmKr7nFX1z+W35J+&#xA;Qfy+hVtGsvW1Tjxl1e6pJdNUUYK1AI1P8qAe9cVZ5irsVdirsVdirG/zI8pReb/Imt+XHA5ajaul&#xA;uSaBZ0pJAxPgsqKcVfmnPDLBNJBMhjmiYpJGwoVZTQgjxBxVTxV9+f8AOLmtxap+S2iIpJl05rix&#xA;nrTZo5mdKU/4qkTFXrGKuxV2KuxV2KuxV2KuxV2KuxV2KuxV2KuxV2KuxV5/+bX50eU/y30v1dQk&#xA;F3rE6k2GjxMPWkPQO/X046/tn6KnFXwx+Y/5n+bPzA1ttT166LIhb6lYRki3tkb9mJKnwFWPxHuc&#xA;VYlir0H8tfyM/MDz/KsmlWJttJ5Uk1e7rHbjx4GnKU+yA+9MVfXH5X/840/l/wCSBDe3EP6d1+Oj&#xA;fpG8QcI3HeCD4kT5tyb3GKvW8VdirsVdirsVdirsVdir4Q/5yp8gN5X/ADNuNSt4+Ol+Yw1/bkdB&#xA;OTS5ToN/UPP5MMVeNYq+oP8AnCrzxDb32s+S7qXib2mo6YjGgMsa8LhVH8zRhG+SnFX1pirsVdir&#xA;sVdirsVdirsVdirsVdirsVdirsVdirwf88v+cnNJ8n/WfL/lZo9S8zqDHNcbPbWbHY8qbSSr/J0B&#xA;+1/Lir4w1nWtW1vU7jVNWu5L3ULpi89zMxZ2J/h4AbDFU98h/lj5289X31Xy5psl0iELPeMOFtDU&#xA;E/vZm+FdhsOp7A4q+r/yv/5xJ8neXDDqPmp18xaulHFuykWETDegiO81PGTY/wAuKveYYYYIUhhR&#xA;YoYlCRxoAqqqigVQNgAMVXYq7FXYq7FXYq7FXYq7FXYq8x/5yH/LU+e/y6u7a0h9XW9LrfaSFFXa&#xA;SMfvIR3/AHqVAH83HwxV+fTKysVYFWU0ZTsQRiqP0HXdU0DWbPWdKnNvqNhKs9tMvZlPcdwehHcY&#xA;q/QL8mvzk0H8ytAFzblbXXLRVGq6WT8UbHb1I67tEx+ye3Q74q9CxV2KuxV2KuxV2KuxV2KuxV2K&#xA;uxV2KqV3d2tnay3d3MlvawIZJ55WCRoiirM7MQFAHUnFXyN+ef8AzlXc6qLjy55Bme100kx3muiq&#xA;TTjoVt60aOM93PxHtxHVV4D5Z8peZvNeqppmgafPqV9IalIVqFB/akc0VF/ymIGKvqL8sP8AnDjT&#xA;LP0dS8/3Iv7kUcaNaMy267A0mmHF3I7qlB7sMVfSGl6VpmlWEOn6ZaxWVjAvGG2gRY41HsqgDFUV&#xA;irsVdirsVdirsVdirsVdirsVdirsVfNP/OQf/OMcuuXdz5t8kQqNUl5S6po4IQXDndpoK0USN1ZT&#xA;9rqPi6qvkm+sL3T7yayvreS1vLdik9vMpjkRh1VlYAg4qifL/mLW/Lur2+r6Jey2GpWx5Q3MLcWF&#xA;dip7MrDZlOxHXFX1l+Vf/OYOhalHDpnnyMaVqAAUavCrNaSkDrIi8nhZvaq/6oxV9FWGoWGo2cV7&#xA;p9zFeWc45Q3Nu6yxOtaVV0JVh8jiqvirsVdirsVdirsVdirsVdiqSecfOnlvydoc2t+YbxLOxh2W&#xA;u8kjn7McSD4ndvAfM7AnFXxN+bH53+dfzZ1hND0e1uINDeQLYaFahpJ7hgfhe49Opkeu4QfCvufi&#xA;KrOPyv8A+cOdVvhFqXn25OnWxoy6NasrXLDwmlFUi+S8j/qnFX1L5X8oeWfKumJpfl7TodNsk/3X&#xA;CtCx/mkc1eRv8pyTiqb4q7FXYq7FXYq7FXYq7FXYq7FXYq7FXYq7FXYqxPzx+VXkLzvCU8x6RDdT&#xA;hSkV8tYrmMU24zJxfbrxJK+2KvBfNv8AzhJEzvN5S8wGNSTxs9UTkB/0cQCvX/irFXlHmH/nF/8A&#xA;ObRQ8g0UanAhI9bTpo56+4iJSah/1MVY7ofmn81fyz1BhZTaj5fl5gzWVxG8cMjL/vy3mX02PuVr&#xA;ir3DyV/zmxcII7fznoYlACq2oaYeLbChZreVuJJ6/DIPlir3Lyj+e35VeauEemeYLeO7cClleE2s&#xA;1SacQs3AOf8AULYqz3FXYq7FXYq7FXYqw/8AMfzvrvliwg/QfljUPMuqXpdLaKzSsETKAeV1KK+m&#xA;u+22/iMVeKS/848/ml+Zeurr35q62mnQLUW+jWBEzQxkiscdCYIqj9sGRj+1ir3DyJ+VvkbyNaeh&#xA;5c0uO2lZeM18/wC8upfHnM1WoaV4ii+AxVleKuxV2KuxV2KuxV2KuxV2KuxV2KuxV2KuxV2KuxV2&#xA;KuxV2KuxVSu7S0vLd7a7hjuLeTaSGVQ6MAa7qwIO4xVgXmD/AJx//J7XjI155YtIJpAR61kGs2B/&#xA;mpbmNSe/xA+9cVeZ6/8A84TeTbly+h69faZUbpcxx3iA+1PqzU+bHFVbyH+QP50+T9ShTTPzDSDR&#xA;VcGW29KS4QrSjcbaflErEClQcVf/2Q==</xapGImg:image>
               </rdf:li>
            </rdf:Alt>
         </xap:Thumbnails>
         <xap:CreatorTool>Adobe Illustrator CS3</xap:CreatorTool>
         <xap:ModifyDate>2008-01-04T01:05:22-08:00</xap:ModifyDate>
         <xap:MetadataDate>2008-01-04T01:05:22-08:00</xap:MetadataDate>
      </rdf:Description>
      <rdf:Description rdf:about=""
            xmlns:xapTPg="http://ns.adobe.com/xap/1.0/t/pg/"
            xmlns:stDim="http://ns.adobe.com/xap/1.0/sType/Dimensions#"
            xmlns:xapG="http://ns.adobe.com/xap/1.0/g/">
         <xapTPg:MaxPageSize rdf:parseType="Resource">
            <stDim:w>612.000000</stDim:w>
            <stDim:h>792.000000</stDim:h>
            <stDim:unit>Points</stDim:unit>
         </xapTPg:MaxPageSize>
         <xapTPg:NPages>1</xapTPg:NPages>
         <xapTPg:HasVisibleTransparency>False</xapTPg:HasVisibleTransparency>
         <xapTPg:HasVisibleOverprint>False</xapTPg:HasVisibleOverprint>
         <xapTPg:PlateNames>
            <rdf:Seq>
               <rdf:li>Cyan</rdf:li>
               <rdf:li>Magenta</rdf:li>
               <rdf:li>Yellow</rdf:li>
               <rdf:li>Black</rdf:li>
            </rdf:Seq>
         </xapTPg:PlateNames>
         <xapTPg:SwatchGroups>
            <rdf:Seq>
               <rdf:li rdf:parseType="Resource">
                  <xapG:groupName>Default Swatch Group</xapG:groupName>
                  <xapG:groupType>0</xapG:groupType>
               </rdf:li>
            </rdf:Seq>
         </xapTPg:SwatchGroups>
      </rdf:Description>
      <rdf:Description rdf:about=""
            xmlns:dc="http://purl.org/dc/elements/1.1/">
         <dc:format>image/svg+xml</dc:format>
      </rdf:Description>
      <rdf:Description rdf:about=""
            xmlns:xapMM="http://ns.adobe.com/xap/1.0/mm/">
         <xapMM:InstanceID>uuid:D66227D0A2BADC11828F907C0EB444D3</xapMM:InstanceID>
      </rdf:Description>
   </rdf:RDF>
</x:xmpmeta>
                                                                                                    
                                                                                                    
                                                                                                    
                                                                                                    
                                                                                                    
                                                                                                    
                                                                                                    
                                                                                                    
                                                                                                    
                                                                                                    
                                                                                                    
                                                                                                    
                                                                                                    
                                                                                                    
                                                                                                    
                                                                                                    
                                                                                                    
                                                                                                    
                                                                                                    
                                                                                                    
                           
<?xpacket end="w"?>
	</metadata>
<g id="Layer_1" i:layer="yes" i:dimmedPercent="50" i:rgbTrio="#4F008000FFFF">
	<g>
		<g id="surface0" i:knockout="Off">
			<path fill="none" stroke="#000000" stroke-width="0.1" stroke-miterlimit="10" d="M12.289,80.436
				c3.292-4.745,8.785-7.999,14.615-8.168c14.142-1.258,28.313,9.713,30.247,23.839c0.607,3.048-0.672,6.023-1.101,9.002
				c6,4.009,12.297,7.753,18.745,11.019c20.032,5.181,41.814,4.143,61.065-3.606c6.584-2.765,12.841-7.489,20.261-7.331
				c6.696,0.548,8.601,9.882,4.425,14.344c-4.715,5.241-12.055,6.45-18.623,7.796c-5.024,0.797-9.997,1.964-15.064,2.459
				c-11.19,0.224-22.515,0.573-33.522-1.829c-0.035,0.842-0.104,2.526-0.14,3.369c-3.077,1.816-6.145,0.039-8.727-1.75
				c-7.073-4.303-14.162-8.587-21.446-12.527c-3.731-2.02-6.904-4.915-10.739-6.767c-3.729,3.045-8.449,5.039-13.313,4.937
				c-11.382,0.249-22.322-6.978-27.075-17.233C9.633,92.452,9.429,85.793,12.289,80.436z"/>
			<path d="M12.289,80.436c3.292-4.745,8.785-7.999,14.615-8.168c14.142-1.258,28.313,9.713,30.247,23.839
				c0.607,3.048-0.672,6.023-1.101,9.002c6,4.009,12.297,7.753,18.745,11.019c20.032,5.181,41.814,4.143,61.065-3.606
				c6.584-2.765,12.841-7.489,20.261-7.331c6.696,0.548,8.601,9.882,4.425,14.344c-4.715,5.241-12.055,6.45-18.623,7.796
				c-5.024,0.797-9.997,1.964-15.064,2.459c-11.19,0.224-22.515,0.573-33.522-1.829c-0.035,0.842-0.104,2.526-0.14,3.369
				c-3.077,1.816-6.145,0.039-8.727-1.75c-7.073-4.303-14.162-8.587-21.446-12.527c-3.731-2.02-6.904-4.915-10.739-6.767
				c-3.729,3.045-8.449,5.039-13.313,4.937c-11.382,0.249-22.322-6.978-27.075-17.233C9.633,92.452,9.429,85.793,12.289,80.436z"/>
			<path fill="none" stroke="#FFFFFF" stroke-width="0.1" stroke-miterlimit="10" d="M25.53,78.66
				c11.92-2.254,24.575,7.27,25.642,19.378c-0.239,4.269-2.707,8.703-6.939,10.099c-9.413,3.137-20.221-1.964-25.312-10.145
				C16,93.72,15.507,87.848,17.954,83.255C19.824,80.878,22.573,79.257,25.53,78.66z"/>
			<path fill="#FFFFFF" d="M25.53,78.66c11.92-2.254,24.575,7.27,25.642,19.378c-0.239,4.269-2.707,8.703-6.939,10.099
				c-9.413,3.137-20.221-1.964-25.312-10.145C16,93.72,15.507,87.848,17.954,83.255C19.824,80.878,22.573,79.257,25.53,78.66z"/>
			<path fill="none" stroke="#000000" stroke-width="0.1" stroke-miterlimit="10" d="M214.136,101.357
				c5.64-2.335,11.978-2.573,17.974-1.836c10.477,1.97,20.87,5.416,29.645,11.611c4.96,3.875,9.789,8.724,11.088,15.126
				c3.086,14.474-2.619,30.16-13.905,39.65c-2.78,1.977-4.923,5.879-8.69,5.667c6.875-9.031,10.263-20.398,10.311-31.688
				c0.005-5.234-2.635-10.292-7.047-13.142c-10.703-7.35-24.409-6.529-36.234-10.926c-3.699-1.167-6.258-4.328-7.442-7.917
				C208.912,104.905,211.609,102.406,214.136,101.357z"/>
			<path d="M214.136,101.357c5.64-2.335,11.978-2.573,17.974-1.836c10.477,1.97,20.87,5.416,29.645,11.611
				c4.96,3.875,9.789,8.724,11.088,15.126c3.086,14.474-2.619,30.16-13.905,39.65c-2.78,1.977-4.923,5.879-8.69,5.667
				c6.875-9.031,10.263-20.398,10.311-31.688c0.005-5.234-2.635-10.292-7.047-13.142c-10.703-7.35-24.409-6.529-36.234-10.926
				c-3.699-1.167-6.258-4.328-7.442-7.917C208.912,104.905,211.609,102.406,214.136,101.357z"/>
			<path fill="none" stroke="#000000" stroke-width="0.1" stroke-miterlimit="10" d="M206.591,160.853
				c3.589-7.113,14.757-6.396,18.925-0.272c3.535,4.709,3.914,10.828,4.512,16.468c0.955,13.415,0.115,27.341,5.024,40.12
				c4.245,9.896,13.774,15.988,23.126,20.457c10.726,5.433,22.539,8.01,33.722,12.25c-2.38,2.905-6.612,1.395-9.782,1.065
				c-11.38-2.558-22.757-5.128-34.135-7.681c-10.074-2.482-20.65-6.707-26.668-15.64c-8.186-15.088-13.767-31.597-16.365-48.567
				C204.424,173.02,203.715,166.432,206.591,160.853z"/>
			<path d="M206.591,160.853c3.589-7.113,14.757-6.396,18.925-0.272c3.535,4.709,3.914,10.828,4.512,16.468
				c0.955,13.415,0.115,27.341,5.024,40.12c4.245,9.896,13.774,15.988,23.126,20.457c10.726,5.433,22.539,8.01,33.722,12.25
				c-2.38,2.905-6.612,1.395-9.782,1.065c-11.38-2.558-22.757-5.128-34.135-7.681c-10.074-2.482-20.65-6.707-26.668-15.64
				c-8.186-15.088-13.767-31.597-16.365-48.567C204.424,173.02,203.715,166.432,206.591,160.853z"/>
			<path fill="none" stroke="#000000" stroke-width="0.1" stroke-miterlimit="10" d="M184.045,158.668
				c4.395-1.514,9.656-2.251,13.824,0.289c2.72,1.489,3.781,4.619,4.843,7.336c1.644,4.957-1.427,10.118-5.263,13.119
				c-5.43,4.15-11.516,7.32-17.455,10.665c-33.648,19.224-67.917,37.327-101.78,56.166c-5.821,3.333-12.011,5.963-18.349,8.14
				c-0.462-0.377-0.923-0.75-1.383-1.119c2.119-1.07,4.217-2.199,6.128-3.614c29.266-23.435,58.737-46.624,88.071-69.979
				C162.56,171.892,172.271,163.472,184.045,158.668z"/>
			<path d="M184.045,158.668c4.395-1.514,9.656-2.251,13.824,0.289c2.72,1.489,3.781,4.619,4.843,7.336
				c1.644,4.957-1.427,10.118-5.263,13.119c-5.43,4.15-11.516,7.32-17.455,10.665c-33.648,19.224-67.917,37.327-101.78,56.166
				c-5.821,3.333-12.011,5.963-18.349,8.14c-0.462-0.377-0.923-0.75-1.383-1.119c2.119-1.07,4.217-2.199,6.128-3.614
				c29.266-23.435,58.737-46.624,88.071-69.979C162.56,171.892,172.271,163.472,184.045,158.668z"/>
		</g>
	</g>
	<g i:knockout="Off">
		<path i:knockout="Off" d="M35.406,124.313c4.988,0,9.031,4.043,9.031,9.031s-4.043,9.031-9.031,9.031s-9.031-4.043-9.031-9.031
			S30.418,124.313,35.406,124.313 M35.406,130.313c-1.671,0-3.031,1.36-3.031,3.031s1.36,3.031,3.031,3.031s3.031-1.36,3.031-3.031
			S37.078,130.313,35.406,130.313L35.406,130.313z"/>
	</g>
	<circle i:knockout="Off" cx="170.449" cy="74.676" r="21.699"/>
</g>
</svg>
