<?xml version="1.0" encoding="UTF-8" standalone="no"?>
<!-- Created with Inkscape (http://www.inkscape.org/) -->

<svg
   xmlns:dc="http://purl.org/dc/elements/1.1/"
   xmlns:cc="http://creativecommons.org/ns#"
   xmlns:rdf="http://www.w3.org/1999/02/22-rdf-syntax-ns#"
   xmlns:svg="http://www.w3.org/2000/svg"
   xmlns="http://www.w3.org/2000/svg"
   xmlns:sodipodi="http://sodipodi.sourceforge.net/DTD/sodipodi-0.dtd"
   xmlns:inkscape="http://www.inkscape.org/namespaces/inkscape"
   width="744.09448819"
   height="1052.3622047"
   id="svg2"
   version="1.1"
   inkscape:version="0.48.2 r9819"
   sodipodi:docname="booked_court.svg"
   inkscape:export-filename="/home/luka/etc/saion/ht_si/env/ht/staticfiles/img/booked_court.png"
   inkscape:export-xdpi="257.14001"
   inkscape:export-ydpi="257.14001">
  <defs
     id="defs4" />
  <sodipodi:namedview
     id="base"
     pagecolor="#ffffff"
     bordercolor="#666666"
     borderopacity="1.0"
     inkscape:pageopacity="0.0"
     inkscape:pageshadow="2"
     inkscape:zoom="15.839192"
     inkscape:cx="90.635846"
     inkscape:cy="905.89827"
     inkscape:document-units="px"
     inkscape:current-layer="layer1"
     showgrid="false"
     inkscape:window-width="1916"
     inkscape:window-height="1045"
     inkscape:window-x="0"
     inkscape:window-y="18"
     inkscape:window-maximized="0" />
  <metadata
     id="metadata7">
    <rdf:RDF>
      <cc:Work
         rdf:about="">
        <dc:format>image/svg+xml</dc:format>
        <dc:type
           rdf:resource="http://purl.org/dc/dcmitype/StillImage" />
        <dc:title></dc:title>
      </cc:Work>
    </rdf:RDF>
  </metadata>
  <g
     inkscape:label="Layer 1"
     inkscape:groupmode="layer"
     id="layer1">
    <path
       sodipodi:type="arc"
       style="fill:#dc3d00;fill-opacity:1"
       id="path2987"
       sodipodi:cx="70.223213"
       sodipodi:cy="161.29076"
       sodipodi:rx="1.5625"
       sodipodi:ry="1.4285715"
       d="m 71.785713,161.29076 a 1.5625,1.4285715 0 1 1 -3.125,0 1.5625,1.4285715 0 1 1 3.125,0 z"
       transform="matrix(2.24,0,0,2.4499999,-92.368188,-241.00447)" />
    <text
       xml:space="preserve"
       style="font-size:6px;font-style:normal;font-weight:normal;line-height:125%;letter-spacing:0px;word-spacing:0px;fill:#000000;fill-opacity:1;stroke:none;font-family:Sans"
       x="62.970383"
       y="156.34488"
       id="text2989"
       sodipodi:linespacing="125%"><tspan
         sodipodi:role="line"
         id="tspan2991"
         x="62.970383"
         y="156.34488">1</tspan></text>
    <path
       sodipodi:type="arc"
       style="fill:#dc3d00;fill-opacity:1"
       id="path2987-8"
       sodipodi:cx="70.223213"
       sodipodi:cy="161.29076"
       sodipodi:rx="1.5625"
       sodipodi:ry="1.4285715"
       d="m 71.785713,161.29076 a 1.5625,1.4285715 0 1 1 -3.125,0 1.5625,1.4285715 0 1 1 3.125,0 z"
       transform="matrix(2.24,0,0,2.4499999,-85.368188,-241.00447)" />
    <text
       xml:space="preserve"
       style="font-size:6px;font-style:normal;font-weight:normal;line-height:125%;letter-spacing:0px;word-spacing:0px;fill:#000000;fill-opacity:1;stroke:none;font-family:Sans"
       x="69.970383"
       y="156.34488"
       id="text2989-9"
       sodipodi:linespacing="125%"><tspan
         sodipodi:role="line"
         id="tspan2991-7"
         x="69.970383"
         y="156.34488">2</tspan></text>
    <path
       sodipodi:type="arc"
       style="fill:#dc3d00;fill-opacity:1"
       id="path2987-6"
       sodipodi:cx="70.223213"
       sodipodi:cy="161.29076"
       sodipodi:rx="1.5625"
       sodipodi:ry="1.4285715"
       d="m 71.785713,161.29076 a 1.5625,1.4285715 0 1 1 -3.125,0 1.5625,1.4285715 0 1 1 3.125,0 z"
       transform="matrix(2.24,0,0,2.4499999,-78.368188,-241.00447)" />
    <text
       xml:space="preserve"
       style="font-size:6px;font-style:normal;font-weight:normal;line-height:125%;letter-spacing:0px;word-spacing:0px;fill:#000000;fill-opacity:1;stroke:none;font-family:Sans"
       x="76.970383"
       y="156.34488"
       id="text2989-1"
       sodipodi:linespacing="125%"><tspan
         sodipodi:role="line"
         id="tspan2991-2"
         x="76.970383"
         y="156.34488">3</tspan></text>
    <path
       sodipodi:type="arc"
       style="fill:#dc3d00;fill-opacity:1"
       id="path2987-3"
       sodipodi:cx="70.223213"
       sodipodi:cy="161.29076"
       sodipodi:rx="1.5625"
       sodipodi:ry="1.4285715"
       d="m 71.785713,161.29076 a 1.5625,1.4285715 0 1 1 -3.125,0 1.5625,1.4285715 0 1 1 3.125,0 z"
       transform="matrix(2.24,0,0,2.4499999,-71.368188,-241.00447)" />
    <text
       xml:space="preserve"
       style="font-size:6px;font-style:normal;font-weight:normal;line-height:125%;letter-spacing:0px;word-spacing:0px;fill:#000000;fill-opacity:1;stroke:none;font-family:Sans"
       x="83.970383"
       y="156.34488"
       id="text2989-19"
       sodipodi:linespacing="125%"><tspan
         sodipodi:role="line"
         id="tspan2991-4"
         x="83.970383"
         y="156.34488">4</tspan></text>
    <path
       sodipodi:type="arc"
       style="fill:#dc3d00;fill-opacity:1"
       id="path2987-84"
       sodipodi:cx="70.223213"
       sodipodi:cy="161.29076"
       sodipodi:rx="1.5625"
       sodipodi:ry="1.4285715"
       d="m 71.785713,161.29076 a 1.5625,1.4285715 0 1 1 -3.125,0 1.5625,1.4285715 0 1 1 3.125,0 z"
       transform="matrix(2.24,0,0,2.4499999,-64.368188,-241.00447)" />
    <text
       xml:space="preserve"
       style="font-size:6px;font-style:normal;font-weight:normal;line-height:125%;letter-spacing:0px;word-spacing:0px;fill:#000000;fill-opacity:1;stroke:none;font-family:Sans"
       x="90.970383"
       y="156.34488"
       id="text2989-5"
       sodipodi:linespacing="125%"><tspan
         sodipodi:role="line"
         id="tspan2991-0"
         x="90.970383"
         y="156.34488">5</tspan></text>
    <path
       sodipodi:type="arc"
       style="fill:#dc3d00;fill-opacity:1"
       id="path2987-1"
       sodipodi:cx="70.223213"
       sodipodi:cy="161.29076"
       sodipodi:rx="1.5625"
       sodipodi:ry="1.4285715"
       d="m 71.785713,161.29076 a 1.5625,1.4285715 0 1 1 -3.125,0 1.5625,1.4285715 0 1 1 3.125,0 z"
       transform="matrix(2.24,0,0,2.4499999,-57.368188,-241.00447)" />
    <text
       xml:space="preserve"
       style="font-size:6px;font-style:normal;font-weight:normal;line-height:125%;letter-spacing:0px;word-spacing:0px;fill:#000000;fill-opacity:1;stroke:none;font-family:Sans"
       x="97.970383"
       y="156.34488"
       id="text2989-0"
       sodipodi:linespacing="125%"><tspan
         sodipodi:role="line"
         id="tspan2991-6"
         x="97.970383"
         y="156.34488">6</tspan></text>
    <path
       sodipodi:type="arc"
       style="fill:#dc3d00;fill-opacity:1"
       id="path2987-0"
       sodipodi:cx="70.223213"
       sodipodi:cy="161.29076"
       sodipodi:rx="1.5625"
       sodipodi:ry="1.4285715"
       d="m 71.785713,161.29076 a 1.5625,1.4285715 0 1 1 -3.125,0 1.5625,1.4285715 0 1 1 3.125,0 z"
       transform="matrix(2.24,0,0,2.4499999,-50.368188,-241.00447)" />
    <text
       xml:space="preserve"
       style="font-size:6px;font-style:normal;font-weight:normal;line-height:125%;letter-spacing:0px;word-spacing:0px;fill:#000000;fill-opacity:1;stroke:none;font-family:Sans"
       x="104.97038"
       y="156.34488"
       id="text2989-6"
       sodipodi:linespacing="125%"><tspan
         sodipodi:role="line"
         id="tspan2991-1"
         x="104.97038"
         y="156.34488">7</tspan></text>
    <path
       sodipodi:type="arc"
       style="fill:#dc3d00;fill-opacity:1"
       id="path2987-5"
       sodipodi:cx="70.223213"
       sodipodi:cy="161.29076"
       sodipodi:rx="1.5625"
       sodipodi:ry="1.4285715"
       d="m 71.785713,161.29076 a 1.5625,1.4285715 0 1 1 -3.125,0 1.5625,1.4285715 0 1 1 3.125,0 z"
       transform="matrix(2.24,0,0,2.4499999,-43.368188,-241.00447)" />
    <text
       xml:space="preserve"
       style="font-size:6px;font-style:normal;font-weight:normal;line-height:125%;letter-spacing:0px;word-spacing:0px;fill:#000000;fill-opacity:1;stroke:none;font-family:Sans"
       x="111.97038"
       y="156.34488"
       id="text2989-4"
       sodipodi:linespacing="125%"><tspan
         sodipodi:role="line"
         id="tspan2991-76"
         x="111.97038"
         y="156.34488">8</tspan></text>
    <path
       sodipodi:type="arc"
       style="fill:#dc3d00;fill-opacity:1"
       id="path2987-5-3"
       sodipodi:cx="70.223213"
       sodipodi:cy="161.29076"
       sodipodi:rx="1.5625"
       sodipodi:ry="1.4285715"
       d="m 71.785713,161.29076 a 1.5625,1.4285715 0 1 1 -3.125,0 1.5625,1.4285715 0 1 1 3.125,0 z"
       transform="matrix(2.24,0,0,2.4499999,-36.368188,-241.00447)" />
    <text
       xml:space="preserve"
       style="font-size:6px;font-style:normal;font-weight:normal;line-height:125%;letter-spacing:0px;word-spacing:0px;fill:#000000;fill-opacity:1;stroke:none;font-family:Sans"
       x="118.97038"
       y="156.34489"
       id="text2989-4-7"
       sodipodi:linespacing="125%"><tspan
         sodipodi:role="line"
         id="tspan2991-76-4"
         x="118.97038"
         y="156.34489">9</tspan></text>
    <path
       sodipodi:type="arc"
       style="fill:#dc3d00;fill-opacity:1"
       id="path2987-5-4"
       sodipodi:cx="70.223213"
       sodipodi:cy="161.29076"
       sodipodi:rx="1.5625"
       sodipodi:ry="1.4285715"
       d="m 71.785713,161.29076 a 1.5625,1.4285715 0 1 1 -3.125,0 1.5625,1.4285715 0 1 1 3.125,0 z"
       transform="matrix(2.24,0,0,2.4499999,-92.368188,-234.00447)" />
    <text
       xml:space="preserve"
       style="font-size:4px;font-style:normal;font-weight:normal;line-height:125%;letter-spacing:0px;word-spacing:0px;fill:#000000;fill-opacity:1;stroke:none;font-family:Sans"
       x="62.298996"
       y="162.61392"
       id="text2989-4-74"
       sodipodi:linespacing="125%"><tspan
         sodipodi:role="line"
         id="tspan2991-76-43"
         x="62.298996"
         y="162.61392">10</tspan></text>
    <path
       sodipodi:type="arc"
       style="fill:#dc3d00;fill-opacity:1"
       id="path2987-5-4-0"
       sodipodi:cx="70.223213"
       sodipodi:cy="161.29076"
       sodipodi:rx="1.5625"
       sodipodi:ry="1.4285715"
       d="m 71.785713,161.29076 a 1.5625,1.4285715 0 1 1 -3.125,0 1.5625,1.4285715 0 1 1 3.125,0 z"
       transform="matrix(2.24,0,0,2.4499999,-85.368188,-234.00447)" />
    <text
       xml:space="preserve"
       style="font-size:4px;font-style:normal;font-weight:normal;line-height:125%;letter-spacing:0px;word-spacing:0px;fill:#000000;fill-opacity:1;stroke:none;font-family:Sans"
       x="69.299004"
       y="162.61392"
       id="text2989-4-74-7"
       sodipodi:linespacing="125%"><tspan
         sodipodi:role="line"
         id="tspan2991-76-43-8"
         x="69.299004"
         y="162.61392">11</tspan></text>
    <path
       sodipodi:type="arc"
       style="fill:#dc3d00;fill-opacity:1"
       id="path2987-5-4-6"
       sodipodi:cx="70.223213"
       sodipodi:cy="161.29076"
       sodipodi:rx="1.5625"
       sodipodi:ry="1.4285715"
       d="m 71.785713,161.29076 a 1.5625,1.4285715 0 1 1 -3.125,0 1.5625,1.4285715 0 1 1 3.125,0 z"
       transform="matrix(2.24,0,0,2.4499999,-78.368188,-234.00447)" />
    <text
       xml:space="preserve"
       style="font-size:4px;font-style:normal;font-weight:normal;line-height:125%;letter-spacing:0px;word-spacing:0px;fill:#000000;fill-opacity:1;stroke:none;font-family:Sans"
       x="76.298988"
       y="162.61392"
       id="text2989-4-74-8"
       sodipodi:linespacing="125%"><tspan
         sodipodi:role="line"
         id="tspan2991-76-43-84"
         x="76.298988"
         y="162.61392">12</tspan></text>
    <path
       sodipodi:type="arc"
       style="fill:#dc3d00;fill-opacity:1"
       id="path2987-5-4-3"
       sodipodi:cx="70.223213"
       sodipodi:cy="161.29076"
       sodipodi:rx="1.5625"
       sodipodi:ry="1.4285715"
       d="m 71.785713,161.29076 a 1.5625,1.4285715 0 1 1 -3.125,0 1.5625,1.4285715 0 1 1 3.125,0 z"
       transform="matrix(2.24,0,0,2.4499999,-71.368188,-234.00447)" />
    <text
       xml:space="preserve"
       style="font-size:4px;font-style:normal;font-weight:normal;line-height:125%;letter-spacing:0px;word-spacing:0px;fill:#000000;fill-opacity:1;stroke:none;font-family:Sans"
       x="83.299004"
       y="162.61394"
       id="text2989-4-74-1"
       sodipodi:linespacing="125%"><tspan
         sodipodi:role="line"
         id="tspan2991-76-43-4"
         x="83.299004"
         y="162.61394">13</tspan></text>
    <path
       sodipodi:type="arc"
       style="fill:#dc3d00;fill-opacity:1"
       id="path2987-5-4-9"
       sodipodi:cx="70.223213"
       sodipodi:cy="161.29076"
       sodipodi:rx="1.5625"
       sodipodi:ry="1.4285715"
       d="m 71.785713,161.29076 a 1.5625,1.4285715 0 1 1 -3.125,0 1.5625,1.4285715 0 1 1 3.125,0 z"
       transform="matrix(2.24,0,0,2.4499999,-64.368188,-234.00447)" />
    <text
       xml:space="preserve"
       style="font-size:4px;font-style:normal;font-weight:normal;line-height:125%;letter-spacing:0px;word-spacing:0px;fill:#000000;fill-opacity:1;stroke:none;font-family:Sans"
       x="90.298996"
       y="162.61394"
       id="text2989-4-74-2"
       sodipodi:linespacing="125%"><tspan
         sodipodi:role="line"
         id="tspan2991-76-43-0"
         x="90.298996"
         y="162.61394">14</tspan></text>
    <path
       sodipodi:type="arc"
       style="fill:#dc3d00;fill-opacity:1"
       id="path2987-5-4-9-6"
       sodipodi:cx="70.223213"
       sodipodi:cy="161.29076"
       sodipodi:rx="1.5625"
       sodipodi:ry="1.4285715"
       d="m 71.785713,161.29076 a 1.5625,1.4285715 0 1 1 -3.125,0 1.5625,1.4285715 0 1 1 3.125,0 z"
       transform="matrix(2.24,0,0,2.4499999,-57.368188,-234.00447)" />
    <text
       xml:space="preserve"
       style="font-size:4px;font-style:normal;font-weight:normal;line-height:125%;letter-spacing:0px;word-spacing:0px;fill:#000000;fill-opacity:1;stroke:none;font-family:Sans"
       x="97.298988"
       y="162.61394"
       id="text2989-4-74-2-8"
       sodipodi:linespacing="125%"><tspan
         sodipodi:role="line"
         id="tspan2991-76-43-0-9"
         x="97.298988"
         y="162.61394">15</tspan></text>
    <path
       sodipodi:type="arc"
       style="fill:#dc3d00;fill-opacity:1"
       id="path2987-5-4-9-2"
       sodipodi:cx="70.223213"
       sodipodi:cy="161.29076"
       sodipodi:rx="1.5625"
       sodipodi:ry="1.4285715"
       d="m 71.785713,161.29076 a 1.5625,1.4285715 0 1 1 -3.125,0 1.5625,1.4285715 0 1 1 3.125,0 z"
       transform="matrix(2.24,0,0,2.4499999,-50.368188,-234.00447)" />
    <text
       xml:space="preserve"
       style="font-size:4px;font-style:normal;font-weight:normal;line-height:125%;letter-spacing:0px;word-spacing:0px;fill:#000000;fill-opacity:1;stroke:none;font-family:Sans"
       x="104.29899"
       y="162.61392"
       id="text2989-4-74-2-6"
       sodipodi:linespacing="125%"><tspan
         sodipodi:role="line"
         id="tspan2991-76-43-0-6"
         x="104.29899"
         y="162.61392">16</tspan></text>
    <path
       sodipodi:type="arc"
       style="fill:#dc3d00;fill-opacity:1"
       id="path2987-5-4-9-4"
       sodipodi:cx="70.223213"
       sodipodi:cy="161.29076"
       sodipodi:rx="1.5625"
       sodipodi:ry="1.4285715"
       d="m 71.785713,161.29076 a 1.5625,1.4285715 0 1 1 -3.125,0 1.5625,1.4285715 0 1 1 3.125,0 z"
       transform="matrix(2.24,0,0,2.4499999,-43.368188,-234.00447)" />
    <text
       xml:space="preserve"
       style="font-size:4px;font-style:normal;font-weight:normal;line-height:125%;letter-spacing:0px;word-spacing:0px;fill:#000000;fill-opacity:1;stroke:none;font-family:Sans"
       x="111.29899"
       y="162.61394"
       id="text2989-4-74-2-9"
       sodipodi:linespacing="125%"><tspan
         sodipodi:role="line"
         id="tspan2991-76-43-0-5"
         x="111.29899"
         y="162.61394">17</tspan></text>
    <path
       sodipodi:type="arc"
       style="fill:#dc3d00;fill-opacity:1"
       id="path2987-5-4-9-0"
       sodipodi:cx="70.223213"
       sodipodi:cy="161.29076"
       sodipodi:rx="1.5625"
       sodipodi:ry="1.4285715"
       d="m 71.785713,161.29076 a 1.5625,1.4285715 0 1 1 -3.125,0 1.5625,1.4285715 0 1 1 3.125,0 z"
       transform="matrix(2.24,0,0,2.4499999,-36.368188,-234.00447)" />
    <text
       xml:space="preserve"
       style="font-size:4px;font-style:normal;font-weight:normal;line-height:125%;letter-spacing:0px;word-spacing:0px;fill:#000000;fill-opacity:1;stroke:none;font-family:Sans"
       x="118.299"
       y="162.61392"
       id="text2989-4-74-2-4"
       sodipodi:linespacing="125%"><tspan
         sodipodi:role="line"
         id="tspan2991-76-43-0-8"
         x="118.299"
         y="162.61392">18</tspan></text>
  </g>
</svg>
